<svg width="561" height="376" viewBox="0 0 561 376" fill="none" xmlns="http://www.w3.org/2000/svg">
<g clip-path="url(#clip0_251_4184)">
<path d="M518.62 317.741C518.244 313.337 515.101 306.778 502.256 300.553C492.299 295.731 478.373 292.18 463.047 290.559L463.596 285.346C479.739 287.054 493.897 290.679 504.536 295.836C516.46 301.614 523.132 309.033 523.84 317.293L518.62 317.741Z" fill="#00A3FE"/>
<path d="M369.025 187.586L368.296 182.394C385.428 179.988 397.707 173.308 404.795 162.539C416.324 145.017 410.335 122.348 410.271 122.123L415.325 120.742C415.603 121.764 421.991 145.944 409.17 165.425C401.216 177.508 387.712 184.965 369.025 187.586Z" fill="#00A3FE"/>
<path d="M324.009 99.8169L320.402 101.878C317.766 97.2594 294.623 56.5294 293.198 48.6878C291.617 39.9902 299.434 32.1027 299.768 31.7716L302.696 34.7201C302.633 34.7836 296.098 41.4098 297.287 47.941C298.385 53.986 316.949 87.4345 324.009 99.8134V99.8169Z" fill="#364154"/>
<path d="M303.756 42.0827C303.756 42.0827 308.443 33.1032 307.338 29.6967C306.233 26.2867 301.408 24.3703 296.133 30.3238C290.861 36.2772 291.565 38.5705 294.208 40.2966C296.851 42.0193 300.944 45.2179 303.756 42.0862V42.0827Z" fill="#00A3FE"/>
<path d="M382.81 34.5969L385.027 31.0812C380.533 28.2419 340.909 3.29733 333.145 1.52187C324.534 -0.443822 316.316 7.02439 315.971 7.34144L318.787 10.3992C318.853 10.3393 325.755 4.09699 332.223 5.57655C338.21 6.94337 370.77 26.9878 382.813 34.5969H382.81Z" fill="#364154"/>
<path d="M326.086 11.7871C326.086 11.7871 316.918 16.0743 313.564 14.8202C310.21 13.5661 308.51 8.65188 314.687 3.64254C320.863 -1.36681 323.122 -0.560097 324.724 2.15946C326.328 4.87902 329.337 9.11336 326.086 11.7871Z" fill="#00A3FE"/>
<path d="M430.507 104.83C428.744 118.509 420.868 129.264 407.748 135.615C387.786 145.278 364.981 141.403 341.796 124.409C324.945 112.059 313.846 97.2066 313.381 96.5796C311.533 94.089 312.054 90.5733 314.542 88.7239C317.027 86.878 320.539 87.3958 322.387 89.8829C322.492 90.0238 333.086 104.157 348.623 115.493C368.455 129.961 386.702 133.329 402.863 125.505C414.646 119.802 420.28 110.135 419.615 96.7769C419.017 84.7115 413.062 70.536 403.285 57.8858C393.393 45.0841 380.519 35.1042 367.962 30.5C365.052 29.4326 363.559 26.2093 364.622 23.296C365.689 20.3862 368.909 18.889 371.816 19.9529C386.516 25.3392 400.839 36.3724 412.154 51.0129C423.465 65.6499 430.092 81.7031 430.813 96.2168C430.961 99.197 430.856 102.072 430.5 104.826L430.507 104.83Z" fill="#00A3FE"/>
<path d="M280.5 376C435.416 376 561 361.089 561 342.696C561 324.303 435.416 309.392 280.5 309.392C125.584 309.392 0 324.303 0 342.696C0 361.089 125.584 376 280.5 376Z" fill="#EAEAEA"/>
<path d="M362.863 261.719C362.863 261.719 445.144 95.0013 498.219 119.019C551.294 143.037 413.583 218.523 391.464 267.813L362.863 261.719Z" fill="#EAEAEA"/>
<path d="M378.83 265.27C393.488 230.951 421.079 198.996 441.642 178.233C463.937 155.723 482.994 141.163 483.184 141.019L482.284 139.832C482.093 139.976 462.952 154.599 440.587 177.183C419.932 198.038 392.214 230.148 377.464 264.681L378.833 265.27H378.83Z" fill="white"/>
<path d="M487.791 279.614C467.544 284.236 471.257 314.951 448.065 309.505C428.452 304.886 426.784 303.1 420.076 308.814C417.778 310.773 415.8 313.08 414.139 315.606C412.147 318.632 408.286 323.099 402.356 324.209C366.132 330.986 315.911 277.814 353.448 247.786C356.158 245.616 360.128 244.75 364.527 244.01C388.388 240.012 395.958 250.911 414.473 222.504C432.995 194.089 459.003 234.241 475.016 232.638C491.029 231.036 505.103 226.069 517.783 242.932C530.463 259.809 508.041 275.006 487.791 279.614Z" fill="#D5D6DA"/>
<g opacity="0.5">
<path d="M365.446 286.744L364.671 285.617C365.168 285.275 415.487 251.351 520.714 247.726L520.76 249.093C415.93 252.707 365.938 286.403 365.446 286.744Z" fill="white"/>
<path d="M430.483 245.334C416.462 232.98 413.91 223.078 413.808 222.666L415.135 222.338C415.16 222.437 417.725 232.272 431.387 244.309L430.483 245.334Z" fill="white"/>
<path d="M433.048 260.06C429.071 253.222 429.332 243.302 433.798 231.374C437.145 222.44 441.72 215.412 441.766 215.342L442.906 216.092C442.726 216.367 425.084 243.651 434.227 259.373L433.045 260.06H433.048Z" fill="white"/>
<path d="M460.724 257.375C459.056 256.008 458.155 255.121 458.113 255.078L459.077 254.113C459.267 254.303 478.303 273.02 506.081 271.875L506.137 273.242C483.755 274.165 466.936 262.466 460.724 257.379V257.375Z" fill="white"/>
<path d="M474.72 288.837C468.301 281.827 466.415 274.767 465.961 270.082C465.468 264.981 466.496 261.578 466.542 261.433L467.847 261.838C467.809 261.969 463.976 275.077 475.731 287.914L474.724 288.837H474.72Z" fill="white"/>
</g>
<g opacity="0.6">
<path d="M479.127 203.787C485.183 202.635 487.348 204.221 487.802 206.595C488.252 208.969 486.816 211.238 480.76 212.39C469.727 214.486 463.578 211.199 463.578 211.199C463.578 211.199 467.932 205.915 479.127 203.787Z" fill="#D5D6DA"/>
</g>
<g opacity="0.6">
<path d="M494.65 87.5825C503.413 87.4169 506.071 90.1541 506.137 93.5923C506.204 97.0304 503.649 99.8663 494.886 100.032C478.923 100.335 471.092 94.2581 471.092 94.2581C471.092 94.2581 478.454 87.8925 494.65 87.5825Z" fill="#D5D6DA"/>
</g>
<g opacity="0.6">
<path d="M471.145 70.321C476.769 64.2866 480.358 64.283 482.72 66.4883C485.081 68.6935 485.324 72.2797 479.7 78.3106C469.456 89.3016 460.228 90.6156 460.228 90.6156C460.228 90.6156 460.752 81.4705 471.148 70.3175L471.145 70.321Z" fill="#D5D6DA"/>
</g>
<path d="M146.305 71.6173C143.159 76.2462 140.755 76.6196 138.942 75.3867C137.13 74.1537 136.599 71.7759 139.745 67.147C145.474 58.717 151.528 56.8782 151.528 56.8782C151.528 56.8782 152.122 63.0641 146.308 71.6173H146.305Z" fill="#D5D6DA"/>
<path d="M161.596 104.499C160.115 109.895 157.961 111.03 155.849 110.448C153.734 109.867 152.464 107.792 153.945 102.395C156.645 92.5635 161.772 88.8646 161.772 88.8646C161.772 88.8646 164.334 94.5257 161.596 104.502V104.499Z" fill="#D5D6DA"/>
<path d="M199.953 190.76L198.961 191.13C198.905 190.979 193.098 175.598 177.863 156.262C163.803 138.423 138.608 113.468 98.4211 95.9032L98.8435 94.9309C139.252 112.594 164.588 137.693 178.721 155.642C194.048 175.102 199.897 190.605 199.953 190.757V190.76Z" fill="#D5D6DA"/>
<path d="M142.346 120.541L141.297 120.407C146.175 82.2455 118.062 52.0485 117.777 51.7491L118.545 51.0199C118.833 51.3229 147.287 81.8721 142.346 120.541Z" fill="#D5D6DA"/>
<path d="M120.593 111.837C110.88 116.444 101.233 115.056 101.12 115.039L101.279 113.992C101.402 114.01 113.755 115.775 124.351 108.451L124.953 109.321C123.521 110.311 122.053 111.143 120.589 111.837H120.593Z" fill="#D5D6DA"/>
<path d="M95.2537 90.8692C102.475 93.0392 104.115 95.3888 103.485 97.4884C102.855 99.5879 100.195 100.648 92.9732 98.4783C79.818 94.5258 74.5989 88.8119 74.5989 88.8119C74.5989 88.8119 81.9085 86.8603 95.2537 90.8692Z" fill="#D5D6DA"/>
<path d="M102.222 110.727C109.76 110.614 112.03 112.361 112.062 114.556C112.094 116.751 109.877 118.561 102.338 118.671C88.6023 118.871 81.905 115 81.905 115C81.905 115 88.2856 110.935 102.219 110.727H102.222Z" fill="#D5D6DA"/>
<path d="M123.158 91.9471C126.642 96.3259 126.287 98.7354 124.573 100.102C122.859 101.469 120.434 101.275 116.95 96.8966C110.605 88.9211 110.644 82.5907 110.644 82.5907C110.644 82.5907 116.722 83.8554 123.158 91.9471Z" fill="#D5D6DA"/>
<path d="M118.728 46.1866C123.454 52.0661 123.479 54.9301 121.768 56.3075C120.058 57.6849 117.271 57.0473 112.544 51.1678C103.932 40.4551 102.863 32.7861 102.863 32.7861C102.863 32.7861 109.989 35.319 118.728 46.1866Z" fill="#D5D6DA"/>
<path d="M237.856 261.366C237.856 261.366 165.165 113.704 125.875 134.953C86.5857 156.202 196.487 223.099 216.287 266.756L237.853 261.37L237.856 261.366Z" fill="#D5D6DA"/>
<path d="M200.499 238.821C200.499 238.821 98.7414 109.829 57.2663 140.36C15.7912 170.892 148.716 210.812 176.891 249.354L200.499 238.821Z" fill="#EAEAEA"/>
<path d="M187.347 244.827C168.371 217.853 138.651 195.308 117.056 181.139C93.6455 165.784 74.4969 156.702 74.3069 156.611L74.8665 155.42C75.0565 155.512 94.2931 164.632 117.777 180.037C139.467 194.265 169.328 216.924 188.421 244.066L187.344 244.827H187.347Z" fill="white"/>
<path d="M211.124 312.288C194.579 311.971 175.255 312.267 155.459 312.805C153.164 309.628 152.14 306.834 152.14 306.834C139.745 294.036 141.899 295.946 114.036 300.899C94.0466 304.442 91.7028 286.818 83.2177 274.062C83.0664 273.83 82.908 273.597 82.7496 273.368C79.4767 268.644 75.2711 264.678 68.8835 262.839C62.1053 260.894 55.1758 257.918 49.112 254.201C48.6088 253.895 48.109 253.581 47.6163 253.261C35.5943 245.472 27.4894 234.756 31.8568 223.666C31.9589 223.402 32.068 223.141 32.1876 222.88C33.0076 221.045 34.1725 219.203 35.721 217.36C51.8641 198.193 68.229 205.01 87.1171 207.965C97.5589 209.596 112.46 196.294 127.093 189.971C127.301 189.879 127.515 189.791 127.723 189.703C139.344 184.845 150.753 184.588 159.583 199.919C159.583 199.919 159.583 199.919 159.583 199.926C159.763 200.236 159.942 200.546 160.118 200.849C179.851 234.611 189.621 222.458 217.409 228.711C222.576 229.877 227.232 231.166 230.304 233.917C258.958 259.559 239.725 295.037 211.124 312.291V312.288Z" fill="#D5D6DA"/>
<path d="M213.52 279.332L214.513 278.047C213.946 277.61 156.493 234.069 31.9272 222.856L31.7829 224.473C155.877 235.647 212.957 278.896 213.52 279.329V279.332Z" fill="white"/>
<path d="M139.097 225.945C156.536 212.214 160.213 200.638 160.361 200.155L158.809 199.68C158.774 199.792 155.086 211.291 138.094 224.67L139.097 225.945Z" fill="white"/>
<path d="M135.089 243.238C140.252 235.39 140.597 223.606 136.078 209.166C132.696 198.352 127.73 189.717 127.681 189.629L126.276 190.443C126.47 190.778 145.605 224.3 133.73 242.347L135.085 243.238H135.089Z" fill="white"/>
<path d="M102.44 238.236C104.506 236.725 105.636 235.731 105.689 235.686L104.608 234.477C104.372 234.689 80.5677 255.638 47.6973 252.454L47.5424 254.071C74.0288 256.635 94.7435 243.869 102.444 238.24L102.44 238.236Z" fill="white"/>
<path d="M83.7737 274.633C91.847 266.739 94.5499 258.492 95.3945 252.965C96.313 246.948 95.3171 242.844 95.2748 242.671L93.6982 243.066C93.7369 243.224 97.4216 259.02 82.6405 273.474L83.7737 274.637V274.633Z" fill="white"/>
<path d="M44.3046 187.896C39.1488 185.733 38.3007 183.45 39.1453 181.425C39.9935 179.403 42.2142 178.406 47.37 180.569C56.763 184.507 59.772 190.077 59.772 190.077C59.772 190.077 53.8349 191.894 44.3046 187.896Z" fill="#D5D6DA"/>
<path d="M363.623 338.183L187.323 341.287C179.749 341.421 173.492 335.393 173.337 327.812L168.505 92.7574C168.35 85.2539 174.231 79.0116 181.723 78.7228L370.967 71.4624C378.946 71.1559 385.506 77.6941 385.235 85.6802L377.123 324.896C376.873 332.216 370.943 338.057 363.626 338.187L363.623 338.183Z" fill="#364154"/>
<path d="M353.04 322.102L198.247 324.825C191.595 324.941 186.105 319.65 185.968 312.992L184.447 99.8134C184.426 96.9283 186.7 94.5434 189.582 94.4342L361.603 87.8361C367.466 87.6107 372.287 92.4157 372.087 98.2846L364.89 310.431C364.671 316.857 359.463 321.989 353.04 322.102Z" fill="#EAEAEA"/>
<path d="M233.042 95.4382L314.852 92.8278C318.72 92.7045 321.669 89.3192 321.268 85.4688L320.62 79.2582C319.909 72.4452 314.085 67.3231 307.243 67.4993L241.956 69.162C235.066 69.3382 229.354 74.5624 228.562 81.4141L227.622 89.5411C227.249 92.7538 229.815 95.5438 233.046 95.4417L233.042 95.4382Z" fill="#00A3FE"/>
<path d="M206.39 121.432H207.129C208.002 121.432 208.706 122.141 208.706 123.011V137.563C208.706 138.437 207.999 139.141 207.129 139.141H206.39C205.517 139.141 204.814 138.433 204.814 137.563V123.011C204.814 122.137 205.521 121.432 206.39 121.432Z" fill="#00A3FE"/>
<path d="M214.706 121.432H215.938C216.431 121.432 216.895 121.661 217.195 122.056L222.178 128.612C223.093 129.813 225.011 129.168 225.011 127.657V123.014C225.011 122.141 225.718 121.436 226.588 121.436H227.274C228.147 121.436 228.851 122.144 228.851 123.014V137.567C228.851 138.44 228.143 139.145 227.274 139.145H226.32C225.827 139.145 225.363 138.916 225.064 138.521L219.799 131.606C218.884 130.405 216.966 131.053 216.966 132.564V137.567C216.966 138.44 216.258 139.145 215.389 139.145H214.703C213.83 139.145 213.126 138.437 213.126 137.567V123.014C213.126 122.141 213.834 121.436 214.703 121.436L214.706 121.432Z" fill="#00A3FE"/>
<path d="M232.943 135.294L233.236 134.946C233.746 134.336 234.633 134.192 235.294 134.629C236.561 135.46 237.909 135.957 239.468 135.957C241.027 135.957 242.02 135.323 242.02 134.238C242.02 133.251 241.414 132.744 238.455 131.987C234.89 131.074 232.592 130.088 232.592 126.523C232.592 123.31 235.171 121.182 238.786 121.182C240.728 121.182 242.456 121.64 243.955 122.486C244.754 122.933 244.976 123.99 244.455 124.744L244.188 125.131C243.727 125.801 242.836 126.005 242.125 125.614C240.975 124.983 239.841 124.621 238.733 124.621C237.241 124.621 236.459 125.304 236.459 126.213C236.459 127.375 237.216 127.756 240.278 128.541C243.867 129.478 245.891 130.768 245.891 133.907C245.891 137.422 243.213 139.398 239.394 139.398C237.276 139.398 235.143 138.814 233.292 137.63C232.496 137.123 232.342 136.02 232.947 135.294H232.943Z" fill="#00A3FE"/>
<path d="M248.999 131.553V123.011C248.999 122.137 249.706 121.432 250.575 121.432H251.314C252.187 121.432 252.891 122.141 252.891 123.011V131.451C252.891 134.336 254.33 135.83 256.709 135.83C259.089 135.83 260.528 134.389 260.528 131.578V123.011C260.528 122.137 261.235 121.432 262.105 121.432H262.844C263.716 121.432 264.42 122.141 264.42 123.011V131.427C264.42 136.792 261.411 139.423 256.66 139.423C251.909 139.423 249.002 136.767 249.002 131.553H248.999Z" fill="#00A3FE"/>
<path d="M268.39 123.011C268.39 122.137 269.097 121.432 269.967 121.432H276.477C278.726 121.432 280.472 122.067 281.633 123.229C282.619 124.215 283.15 125.607 283.15 127.33C283.15 129.531 282.235 131.106 280.785 132.092C280.06 132.586 279.866 133.568 280.363 134.291L281.992 136.675C282.707 137.722 281.957 139.145 280.69 139.145H279.965C279.441 139.145 278.955 138.884 278.659 138.451L275.756 134.167C275.464 133.734 274.975 133.473 274.45 133.473H273.856C272.983 133.473 272.279 134.181 272.279 135.051V137.56C272.279 138.433 271.571 139.138 270.702 139.138H269.963C269.09 139.138 268.386 138.43 268.386 137.56V123.007L268.39 123.011ZM276.228 130.035C278.124 130.035 279.212 129.024 279.212 127.481C279.212 125.811 278.051 124.952 276.154 124.952H273.863C272.99 124.952 272.286 125.66 272.286 126.53V128.457C272.286 129.33 272.993 130.035 273.863 130.035H276.228Z" fill="#00A3FE"/>
<path d="M293.775 121.306H295.278C295.911 121.306 296.481 121.683 296.728 122.267L302.967 136.947C303.411 137.989 302.647 139.145 301.517 139.145H300.894C300.254 139.145 299.677 138.757 299.434 138.162L298.618 136.154C298.375 135.559 297.798 135.171 297.157 135.171H291.797C291.157 135.171 290.579 135.559 290.337 136.154L289.52 138.162C289.277 138.757 288.7 139.145 288.06 139.145H287.535C286.405 139.145 285.642 137.989 286.085 136.947L292.325 122.267C292.571 121.686 293.145 121.306 293.775 121.306ZM295.936 129.552C295.401 128.245 293.553 128.245 293.018 129.552C292.592 130.592 293.356 131.729 294.479 131.729C295.601 131.729 296.365 130.592 295.939 129.552H295.936Z" fill="#00A3FE"/>
<path d="M308.215 121.432H309.446C309.939 121.432 310.404 121.661 310.703 122.056L315.686 128.612C316.601 129.813 318.519 129.168 318.519 127.657V123.014C318.519 122.141 319.227 121.436 320.096 121.436H320.782C321.655 121.436 322.359 122.144 322.359 123.014V137.567C322.359 138.44 321.651 139.145 320.782 139.145H319.828C319.336 139.145 318.871 138.916 318.572 138.521L313.307 131.606C312.392 130.405 310.474 131.053 310.474 132.564V137.567C310.474 138.44 309.767 139.145 308.897 139.145H308.211C307.338 139.145 306.634 138.437 306.634 137.567V123.014C306.634 122.141 307.342 121.436 308.211 121.436L308.215 121.432Z" fill="#00A3FE"/>
<path d="M325.822 130.289C325.822 125.255 329.612 121.13 335.049 121.13C337.569 121.13 339.251 121.852 340.635 122.901C341.363 123.455 341.472 124.508 340.874 125.198L340.575 125.54C340.036 126.16 339.125 126.252 338.453 125.78C337.492 125.103 336.478 124.723 335.021 124.723C332.037 124.723 329.89 127.203 329.89 130.289C329.89 133.375 331.988 135.855 335.021 135.855C336.513 135.855 337.58 135.414 338.593 134.674C339.241 134.202 340.135 134.28 340.684 134.865L341.071 135.28C341.704 135.957 341.616 137.031 340.888 137.605C339.357 138.807 337.545 139.448 334.891 139.448C329.682 139.448 325.815 135.425 325.815 130.289H325.822Z" fill="#00A3FE"/>
<path d="M346.839 121.432H357.031C357.904 121.432 358.608 122.141 358.608 123.011V123.321C358.608 124.194 357.9 124.899 357.031 124.899H350.707C349.834 124.899 349.13 125.607 349.13 126.477V126.914C349.13 127.788 349.838 128.492 350.707 128.492H355.894C356.767 128.492 357.471 129.2 357.471 130.07V130.38C357.471 131.254 356.764 131.958 355.894 131.958H350.707C349.834 131.958 349.13 132.667 349.13 133.537V134.097C349.13 134.97 349.838 135.675 350.707 135.675H357.158C358.031 135.675 358.734 136.383 358.734 137.253V137.563C358.734 138.437 358.027 139.141 357.158 139.141H346.839C345.966 139.141 345.262 138.433 345.262 137.563V123.011C345.262 122.137 345.97 121.432 346.839 121.432Z" fill="#00A3FE"/>
<path d="M239.215 347.839C225.803 349.671 164.757 357.467 148.906 353.514C133.055 349.562 89.1337 346.546 72.9167 347.24C69.0419 347.406 65.5191 347.561 62.3974 347.698C52.4554 348.139 46.6204 348.438 46.6204 348.438C46.6204 348.438 42.9567 348.382 42.9849 345.327C43.0131 342.273 46.2579 342.647 46.2579 342.647C46.6168 342.625 52.8918 342.397 62.0103 341.509C75.1655 340.234 94.2367 337.584 109.993 332.209C136.673 323.109 164.429 317.16 194.495 316.508C224.56 315.856 252.599 310.879 254.9 326.569C257.202 342.259 252.631 346.007 239.215 347.843V347.839Z" fill="#016EB9"/>
<path d="M62.0103 341.505L62.3974 347.695C52.4554 348.135 46.6204 348.434 46.6204 348.434C46.6204 348.434 42.9567 348.378 42.9849 345.324C43.0131 342.27 46.2579 342.643 46.2579 342.643C46.6168 342.622 52.8918 342.393 62.0103 341.505Z" fill="#364154"/>
<path d="M225.834 342.534L170.155 346.032C166.527 346.261 163.37 343.474 163.141 339.839L162.698 332.762C162.469 329.126 165.253 325.97 168.885 325.741L224.564 322.243C228.192 322.014 231.349 324.8 231.578 328.436L232.021 335.513C232.25 339.149 229.466 342.305 225.834 342.534Z" fill="#00A3FE"/>
<path d="M210.927 338.483L181.811 340.311C179.091 340.48 176.751 338.412 176.578 335.693C176.409 332.97 178.475 330.627 181.192 330.454L210.307 328.626C213.028 328.454 215.368 330.525 215.54 333.244C215.713 335.968 213.644 338.31 210.927 338.483Z" fill="#364154"/>
<path d="M469.959 344.454C464.771 344.454 459.327 344.211 453.678 343.721C425.724 341.287 397.545 333.202 374.335 320.95L376.778 316.311C399.386 328.246 426.858 336.123 454.132 338.497C479.162 340.674 500.549 337.701 511.339 330.539C516.597 327.052 519.046 322.743 518.62 317.741L523.839 317.294C524.434 324.254 521.112 330.345 514.232 334.907C504.846 341.135 489.164 344.45 469.955 344.45L469.959 344.454Z" fill="#00A3FE"/>
<path d="M396.255 334.336C406.782 323.799 406.782 306.716 396.255 296.18C385.729 285.643 368.662 285.643 358.136 296.18C347.61 306.716 347.61 323.799 358.136 334.336C368.662 344.873 385.729 344.873 396.255 334.336Z" fill="#131F2D"/>
<path d="M377.193 327.569C383.986 327.569 389.493 322.057 389.493 315.257C389.493 308.458 383.986 302.945 377.193 302.945C370.4 302.945 364.893 308.458 364.893 315.257C364.893 322.057 370.4 327.569 377.193 327.569Z" fill="#00A3FE"/>
<path d="M222.086 185.388C221.925 185.388 221.766 185.381 221.604 185.37L204.208 184.109C200.809 183.863 198.145 180.91 198.145 177.384V162.36C198.145 158.922 200.749 156.142 204.078 156.033L223.23 155.388C224.846 155.335 226.38 155.941 227.541 157.104C228.741 158.298 229.396 159.971 229.347 161.69L228.836 178.61C228.78 180.548 227.936 182.386 226.524 183.662C225.282 184.785 223.719 185.388 222.086 185.388ZM221.946 180.625C222.449 180.66 222.945 180.484 223.339 180.128C223.793 179.72 224.064 179.11 224.085 178.466L224.596 161.546C224.61 161.134 224.458 160.743 224.187 160.472C224.029 160.313 223.765 160.13 223.389 160.14L204.233 160.785C203.494 160.81 202.892 161.518 202.892 162.36V177.384C202.892 178.427 203.621 179.297 204.546 179.364L221.942 180.625H221.946Z" fill="#657285"/>
<path d="M206.545 163.445C205.869 162.818 204.877 163.663 205.317 164.491L211.824 176.208C213.028 178.79 215.544 177.782 217.026 175.369L229.16 155.578C229.632 154.937 228.826 154.123 228.235 154.645L217.254 166.834C212.134 172.033 211.669 169.275 208.755 166.02C207.963 165.136 206.545 163.445 206.545 163.445Z" fill="#00A3FE"/>
<path d="M293.87 168.391L244.209 167.126C243.051 167.098 242.125 166.101 242.125 164.878C242.125 163.638 243.083 162.631 244.262 162.631H293.771C294.848 162.631 295.756 163.473 295.89 164.597L296.041 165.861C296.203 167.225 295.176 168.422 293.873 168.387L293.87 168.391Z" fill="#657285"/>
<path d="M293.87 178.135L244.209 176.87C243.051 176.842 242.125 175.845 242.125 174.622C242.125 173.382 243.083 172.375 244.262 172.375H293.771C294.848 172.375 295.756 173.217 295.89 174.341L296.041 175.605C296.203 176.969 295.176 178.166 293.873 178.131L293.87 178.135Z" fill="#657285"/>
<path d="M222.086 239.497C221.925 239.497 221.766 239.49 221.604 239.48L204.208 238.219C200.809 237.972 198.145 235.02 198.145 231.494V216.469C198.145 213.031 200.749 210.251 204.078 210.142L223.23 209.498C224.846 209.441 226.38 210.051 227.541 211.213C228.741 212.407 229.396 214.081 229.347 215.8L228.836 232.72C228.78 234.657 227.936 236.496 226.524 237.771C225.282 238.895 223.719 239.497 222.086 239.497ZM221.946 234.735C222.452 234.77 222.945 234.594 223.339 234.238C223.793 233.829 224.064 233.223 224.085 232.575L224.596 215.655C224.61 215.243 224.458 214.852 224.187 214.581C224.029 214.422 223.765 214.239 223.389 214.25L204.236 214.894C203.497 214.919 202.896 215.627 202.896 216.469V231.494C202.896 232.536 203.624 233.406 204.55 233.473L221.946 234.735Z" fill="#657285"/>
<path d="M206.545 217.558C205.869 216.931 204.877 217.776 205.317 218.604L211.824 230.32C213.028 232.903 215.544 231.895 217.026 229.482L229.16 209.691C229.632 209.05 228.826 208.236 228.235 208.758L217.254 220.946C212.134 226.146 211.669 223.388 208.755 220.133C207.963 219.249 206.545 217.558 206.545 217.558Z" fill="#00A3FE"/>
<path d="M222.086 287.808C221.925 287.808 221.766 287.801 221.604 287.791L204.208 286.529C200.809 286.283 198.145 283.331 198.145 279.805V264.78C198.145 261.342 200.749 258.562 204.078 258.45L223.23 257.805C224.846 257.749 226.38 258.358 227.541 259.521C228.741 260.715 229.396 262.388 229.347 264.107L228.836 281.027C228.78 282.964 227.936 284.803 226.524 286.079C225.282 287.202 223.719 287.805 222.086 287.805V287.808ZM221.946 283.045C222.452 283.081 222.945 282.905 223.339 282.549C223.793 282.14 224.064 281.531 224.085 280.886L224.596 263.966C224.61 263.554 224.458 263.163 224.187 262.892C224.029 262.733 223.765 262.554 223.389 262.561L204.236 263.205C203.497 263.23 202.896 263.938 202.896 264.78V279.805C202.896 280.847 203.624 281.717 204.55 281.784L221.946 283.045Z" fill="#657285"/>
<path d="M206.545 265.868C205.869 265.241 204.877 266.087 205.317 266.915L211.824 278.631C213.028 281.214 215.544 280.206 217.026 277.793L229.16 258.002C229.632 257.361 228.826 256.547 228.235 257.069L217.254 269.257C212.134 274.457 211.669 271.699 208.755 268.444C207.963 267.559 206.545 265.868 206.545 265.868Z" fill="#00A3FE"/>
<path d="M293.87 270.811L244.209 269.546C243.051 269.518 242.125 268.521 242.125 267.299C242.125 266.059 243.083 265.051 244.262 265.051H293.771C294.848 265.051 295.756 265.893 295.89 267.017L296.041 268.282C296.203 269.645 295.176 270.843 293.873 270.807L293.87 270.811Z" fill="#657285"/>
<path d="M293.87 280.555L244.209 279.29C243.051 279.262 242.125 278.265 242.125 277.043C242.125 275.803 243.083 274.795 244.262 274.795H293.771C294.848 274.795 295.756 275.637 295.89 276.761L296.041 278.026C296.203 279.389 295.176 280.587 293.873 280.551L293.87 280.555Z" fill="#657285"/>
<path d="M259.532 222.888C259.532 222.888 248.569 223.12 245.56 218.385C242.555 213.647 247.654 209.529 247.654 209.529L263.966 218.223L259.532 222.891V222.888Z" fill="#FF7955"/>
<path d="M357.513 236.542C354.592 214.901 329.971 202.681 329.971 202.681C329.971 202.681 332.055 250.904 336.274 249.481C343.482 247.046 353.329 247.001 357.517 236.545L357.513 236.542Z" fill="#364154"/>
<path d="M401.681 262.099L411.711 266.781C412.545 267.172 412.844 268.465 412.393 269.737L412.017 270.804C411.545 272.139 410.426 272.96 409.518 272.636L399.242 268.99L401.684 262.099H401.681Z" fill="#131F2D"/>
<path d="M223.23 193.261C223.23 193.261 219.922 192.662 219.799 193.363C219.602 194.494 222.4 195.607 222.4 195.607L223.23 193.261Z" fill="#00A3FE"/>
<path d="M398.239 258.164C398.179 258.164 398.116 258.161 398.052 258.154C397.186 258.052 396.567 257.269 396.669 256.403L397.429 249.917C397.429 249.329 397.042 248.804 396.475 248.628L343.443 232.117C342.612 231.856 342.148 230.972 342.405 230.141C342.665 229.309 343.549 228.844 344.379 229.102L397.412 245.613C399.347 246.215 400.649 248.054 400.579 250.08C400.579 250.122 400.576 250.164 400.568 250.21L399.801 256.773C399.706 257.576 399.027 258.168 398.239 258.168V258.164Z" fill="#131F2D"/>
<path d="M237.086 209.927L397.194 273.71C398.784 274.256 403.338 270.656 404.743 264.773L406.129 260.863C406.689 259.288 405.883 257.555 404.32 256.963L244.04 194.219L237.086 209.927Z" fill="#00A3FE"/>
<path d="M381.219 247.92C381.219 247.92 380.966 258.062 373.516 264.276L361.853 259.63C361.853 259.63 369.06 252.782 369.078 243.168L381.219 247.92Z" fill="#131F2D"/>
<path d="M223.227 193.275L222.467 195.421C222.255 196.02 222.424 196.689 222.896 197.133L235.083 208.596C236.868 210.273 239.585 210.593 241.626 209.304C243.118 208.36 244.596 206.722 245.353 203.886C246.324 200.257 246.18 197.876 245.659 196.326C245.106 194.681 243.54 193.554 241.781 193.469L224.209 192.627C223.765 192.606 223.368 192.87 223.223 193.275H223.227Z" fill="#131F2D"/>
<path d="M397.926 269.599C397.894 269.599 397.862 269.592 397.834 269.582L379.914 262.23C379.791 262.18 379.731 262.036 379.78 261.912C379.829 261.789 379.974 261.729 380.097 261.779L398.017 269.131C398.14 269.18 398.2 269.324 398.151 269.448C398.112 269.543 398.021 269.599 397.926 269.599Z" fill="#131F2D"/>
<path d="M309.422 358.175C309.422 358.175 309.232 361.796 306.754 362.754C304.277 363.709 297.153 364.442 299.744 366.844C301.229 368.222 308.426 367.552 310.453 367.609C312.48 367.665 314.356 368.599 315.897 367.281C317.594 365.833 316.137 358.358 316.137 358.358C316.137 358.358 314.363 359.221 312.793 359.14C310.53 359.02 309.422 358.178 309.422 358.178V358.175Z" fill="#131F2D"/>
<path d="M291.646 266.872C292.117 274.394 293.015 284.152 294.669 296.087C297.822 318.84 301.651 341.787 303.537 352.792C304.213 356.727 307.423 359.679 311.319 359.94L313.413 360.081C317.622 360.363 321.141 356.833 320.951 352.514L317.657 278.332L317.344 266.534C317.344 266.534 290.871 254.532 291.649 266.869L291.646 266.872Z" fill="#00A3FE"/>
<path d="M332.628 358.802C332.628 358.802 332.438 362.423 329.96 363.382C327.483 364.336 320.36 365.069 322.95 367.471C324.435 368.849 331.632 368.18 333.659 368.232C335.686 368.289 337.562 369.222 339.104 367.905C340.8 366.457 339.343 358.982 339.343 358.982C339.343 358.982 337.569 359.845 336 359.764C333.737 359.644 332.628 358.802 332.628 358.802Z" fill="#131F2D"/>
<path d="M314.433 248.85C314.433 248.85 313.504 265.192 317.875 296.714C321.028 319.467 324.857 342.414 326.744 353.419C327.42 357.354 330.629 360.306 334.525 360.567L336.619 360.708C340.828 360.99 344.347 357.46 344.157 353.141L340.863 278.959L340.216 254.557L314.437 248.85H314.433Z" fill="#00A3FE"/>
<path d="M318.896 303.129L318.583 303.086C318.6 302.952 320.388 289.555 321.739 284.747C323.101 279.889 329.362 275.7 329.426 275.658L329.601 275.922C329.538 275.965 323.372 280.09 322.046 284.831C320.701 289.619 318.917 302.995 318.899 303.129H318.896Z" fill="#131F2D"/>
<path d="M318.994 198.609L317.365 193.719L316.89 192.296L314.099 183.926L313.733 192.254L313.515 197.253L313.444 198.834C313.399 199.909 312.691 200.134 311.836 201.068C311.488 201.445 309.267 203.738 311.79 204.774C314.933 206.063 320.807 204.111 323.038 201.55C323.02 201.547 319.522 200.191 318.998 198.612L318.994 198.609Z" fill="#FF7955"/>
<path d="M306.589 186.078C307.282 181.168 311.396 177.617 315.781 178.152C320.163 178.688 323.154 183.102 322.461 188.016C321.768 192.927 317.653 196.477 313.268 195.942C308.887 195.407 305.895 190.993 306.589 186.078Z" fill="#FF7955"/>
<path d="M310.017 183.922C305.441 184.081 303.221 181.629 303.168 179.357C303.101 176.444 305.075 173.861 307.373 174.946C309.672 176.028 308.686 173.372 310.896 173.09C315.028 172.562 315.802 175.292 319.181 175.426C323.64 175.602 328.722 182.506 324.988 187.547C324.988 187.547 313.631 183.799 310.02 183.922H310.017Z" fill="#131F2D"/>
<path d="M305.941 180.985C305.941 180.985 310.829 185.36 310.185 187.822C309.541 190.285 309.703 191.25 312.561 192.56C315.415 193.874 312.895 196.005 316.7 196.16C320.504 196.315 325.167 192.134 325.167 185.261C325.167 181.428 322.799 178.924 322.799 178.924L305.941 180.981V180.985Z" fill="#131F2D"/>
<path d="M307.718 187.713C308.271 186.984 309.292 186.762 309.992 187.223C310.696 187.685 310.816 188.65 310.259 189.379C309.707 190.108 308.686 190.33 307.986 189.869C307.282 189.407 307.162 188.442 307.718 187.713Z" fill="#FF7955"/>
<path d="M326.821 189.439C326.768 189.439 326.723 189.404 326.712 189.351C326.49 188.428 325.54 187.896 325.53 187.889C325.473 187.857 325.456 187.79 325.484 187.734C325.516 187.678 325.582 187.66 325.639 187.688C325.681 187.713 326.688 188.273 326.934 189.295C326.948 189.355 326.909 189.418 326.849 189.432C326.842 189.432 326.832 189.432 326.821 189.432V189.439Z" fill="#131F2D"/>
<path d="M325.583 187.371C325.523 187.371 325.473 187.325 325.47 187.265C325.466 187.202 325.516 187.149 325.575 187.146C325.59 187.146 326.828 187.061 327.004 186.173C327.015 186.114 327.075 186.071 327.138 186.085C327.201 186.096 327.24 186.159 327.226 186.219C327.015 187.28 325.646 187.371 325.59 187.375C325.59 187.375 325.586 187.375 325.583 187.375V187.371Z" fill="#131F2D"/>
<path d="M308.067 174.774C307.986 174.774 307.905 174.763 307.82 174.739C307.44 174.633 307.159 174.45 306.884 174.274C306.374 173.946 305.934 173.661 304.977 173.95C304.917 173.967 304.854 173.932 304.836 173.872C304.818 173.812 304.854 173.749 304.914 173.731C305.969 173.414 306.501 173.752 307.011 174.083C307.271 174.253 307.539 174.425 307.884 174.52C308.07 174.573 308.232 174.548 308.38 174.45C308.88 174.108 308.996 173.023 308.999 173.013C309.006 172.949 309.059 172.907 309.123 172.91C309.186 172.917 309.232 172.974 309.225 173.034C309.221 173.083 309.094 174.235 308.51 174.637C308.377 174.728 308.229 174.774 308.07 174.774H308.067Z" fill="#131F2D"/>
<path d="M318.832 175.066C317.217 175.066 315.957 173.978 315.901 173.925C315.855 173.883 315.848 173.812 315.89 173.763C315.933 173.717 316.003 173.71 316.052 173.752C316.066 173.766 317.569 175.063 319.322 174.802C319.385 174.792 319.441 174.837 319.452 174.897C319.462 174.961 319.42 175.017 319.357 175.028C319.181 175.056 319.008 175.066 318.836 175.066H318.832Z" fill="#131F2D"/>
<path d="M308.943 190.189C308.753 190.189 308.633 190.154 308.63 190.151C308.602 190.14 308.584 190.112 308.595 190.08C308.605 190.052 308.637 190.034 308.665 190.045C308.707 190.059 309.7 190.355 310.404 189.051C310.418 189.023 310.449 189.016 310.478 189.03C310.506 189.044 310.513 189.08 310.499 189.104C309.999 190.034 309.334 190.186 308.947 190.186L308.943 190.189Z" fill="#131F2D"/>
<path d="M291.646 266.873C291.646 266.873 324.836 265.058 340.589 268.859L340.825 264.364L318.737 257.819L300.905 258.259L295.425 259.429L291.561 265.404L291.646 266.876V266.873Z" fill="#131F2D"/>
<path d="M337.647 212.122C337.647 212.122 334.726 199.549 316.855 199.549C285.712 199.549 294.447 224.976 291.565 265.4C291.565 265.4 311.643 261.046 340.698 266.841C340.698 266.841 343.528 244.947 339.871 226.442C338.907 221.556 339.079 216.37 337.647 212.122Z" fill="#364154"/>
<path d="M313.268 199.549C313.268 199.549 303.277 199.694 295.848 206.715C288.419 213.732 278.853 223.402 276.822 228.964C274.324 235.812 278.923 242.685 284.769 242.833C290.611 242.981 295.851 238.74 295.851 238.74L313.272 199.553L313.268 199.549Z" fill="#364154"/>
<path d="M341.62 256.981L341.402 256.97C342.268 241.114 339.466 224.881 339.434 224.719L339.649 224.681C339.677 224.843 342.486 241.1 341.616 256.981H341.62Z" fill="#131F2D"/>
<path d="M292.385 241.016L292.272 240.825C298.142 237.359 305.783 228.228 305.86 228.136L306.029 228.277C305.952 228.369 298.29 237.532 292.385 241.016Z" fill="#131F2D"/>
<path d="M251.613 224.698C251.54 229.179 274.063 245.571 287.577 242.833C301.947 239.924 284.216 224.166 284.216 224.166L257.737 218.16C257.737 218.16 251.687 220.157 251.613 224.702V224.698Z" fill="#364154"/>
<path d="M257.741 218.157C257.741 218.157 258.047 216.494 256.692 215.314C255.337 214.134 253.919 208.744 253.039 210.096C252.155 211.446 252.968 215.747 251.617 216.208C250.266 216.67 257.741 218.157 257.741 218.157Z" fill="#FF7955"/>
<path d="M240.971 310.382C238.891 310.382 236.938 309.438 235.361 307.641C233.134 305.105 232.173 301.339 233.074 298.69C233.654 296.988 234.942 295.861 236.699 295.519C239.138 295.044 240.901 295.4 241.939 296.573C243.396 298.221 242.667 300.635 242.579 300.906C242.375 301.54 241.696 301.885 241.063 301.677C240.433 301.473 240.088 300.797 240.288 300.166C240.397 299.814 240.605 298.693 240.13 298.165C239.711 297.697 238.627 297.594 237.156 297.883C236.245 298.059 235.653 298.581 235.351 299.468C234.728 301.293 235.527 304.182 237.167 306.052C238.113 307.134 239.708 308.325 241.918 307.877C243.604 307.536 244.888 306.715 245.831 305.69C245.624 305.415 245.43 305.112 245.258 304.788C243.762 301.973 243.857 297.63 245.451 296.02C246.183 295.28 247.172 295.128 248.105 295.611C249.805 296.495 250.653 298.866 250.262 301.653C250.104 302.79 249.724 304.041 249.087 305.228C249.738 305.436 250.329 305.327 250.621 305.27C251.835 305.041 253.264 304.235 254.249 302.91C252.514 300.878 251.226 297.841 251.828 295.956C252.159 294.921 253.032 294.287 254.161 294.262C256.122 294.213 257.537 295.791 257.793 298.264C257.934 299.616 257.723 301.061 257.206 302.399C257.712 302.745 258.318 302.977 258.807 302.646C261.461 300.842 260.693 298.898 260.595 298.679C260.306 298.081 260.56 297.369 261.158 297.08C261.756 296.791 262.478 297.048 262.77 297.647C263.428 299.003 263.727 302.213 260.158 304.64C258.955 305.457 257.477 305.408 256.048 304.517C255.108 305.792 253.549 307.166 251.072 307.638C249.829 307.874 248.682 307.729 247.689 307.243C246.437 308.645 244.702 309.772 242.403 310.237C241.925 310.336 241.446 310.382 240.975 310.382H240.971ZM247.081 297.799C246.606 298.443 246.236 301.114 247.221 303.322C247.239 303.365 247.26 303.407 247.278 303.446C247.587 302.727 247.784 301.998 247.88 301.321C248.133 299.5 247.682 298.2 247.081 297.799ZM254.116 296.682C253.912 297.119 254.299 298.796 255.34 300.391C255.443 299.814 255.471 299.19 255.4 298.521C255.369 298.211 255.157 296.675 254.232 296.675H254.214C254.169 296.675 254.14 296.678 254.119 296.686L254.116 296.682Z" fill="#00A3FE"/>
</g>
<defs>
<clipPath id="clip0_251_4184">
<rect width="561" height="376" fill="white"/>
</clipPath>
</defs>
</svg>
