<svg width="15" height="8" viewBox="0 0 15 8" fill="none" xmlns="http://www.w3.org/2000/svg">
<path fill-rule="evenodd" clip-rule="evenodd" d="M1.14688 0.646856C1.19332 0.600305 1.24849 0.563371 1.30922 0.538171C1.36996 0.512971 1.43508 0.5 1.50084 0.5C1.56659 0.5 1.63171 0.512971 1.69245 0.538171C1.75318 0.563371 1.80835 0.600305 1.85479 0.646856L7.50013 6.29242L13.1455 0.646856C13.192 0.60038 13.2471 0.563513 13.3079 0.53836C13.3686 0.513208 13.4337 0.500262 13.4994 0.500262C13.5652 0.500262 13.6303 0.513208 13.691 0.53836C13.7517 0.563513 13.8069 0.60038 13.8534 0.646856C13.8999 0.693332 13.9367 0.748507 13.9619 0.809231C13.9871 0.869955 14 0.935039 14 1.00077C14 1.06649 13.9871 1.13158 13.9619 1.1923C13.9367 1.25302 13.8999 1.3082 13.8534 1.35468L7.85409 7.35314C7.80765 7.3997 7.75248 7.43663 7.69174 7.46183C7.631 7.48703 7.56589 7.5 7.50013 7.5C7.43437 7.5 7.36926 7.48703 7.30852 7.46183C7.24778 7.43663 7.19261 7.3997 7.14617 7.35314L1.14688 1.35468C1.10032 1.30824 1.06338 1.25308 1.03818 1.19235C1.01297 1.13162 1 1.06652 1 1.00077C1 0.935015 1.01297 0.869911 1.03818 0.809181C1.06338 0.748451 1.10032 0.69329 1.14688 0.646856Z" fill="#0C356A" stroke="#0C356A"/>
</svg>
