<svg width="15" height="9" viewBox="0 0 15 9" fill="none" xmlns="http://www.w3.org/2000/svg">
<path fill-rule="evenodd" clip-rule="evenodd" d="M1.14688 7.38317C1.19332 7.42972 1.24849 7.46666 1.30922 7.49186C1.36996 7.51706 1.43508 7.53003 1.50084 7.53003C1.56659 7.53003 1.63171 7.51706 1.69245 7.49186C1.75318 7.46666 1.80835 7.42972 1.85479 7.38317L7.50013 1.73761L13.1455 7.38317C13.192 7.42965 13.2471 7.46652 13.3079 7.49167C13.3686 7.51682 13.4337 7.52977 13.4994 7.52977C13.5652 7.52977 13.6303 7.51682 13.691 7.49167C13.7517 7.46652 13.8069 7.42965 13.8534 7.38317C13.8999 7.3367 13.9367 7.28152 13.9619 7.2208C13.9871 7.16007 14 7.09499 14 7.02926C14 6.96354 13.9871 6.89845 13.9619 6.83773C13.9367 6.777 13.8999 6.72183 13.8534 6.67535L7.85409 0.676885C7.80765 0.630334 7.75248 0.5934 7.69174 0.568201C7.631 0.543001 7.56589 0.530029 7.50013 0.530029C7.43437 0.530029 7.36926 0.543001 7.30852 0.568201C7.24778 0.5934 7.19261 0.630334 7.14617 0.676885L1.14688 6.67535C1.10032 6.72179 1.06338 6.77695 1.03818 6.83768C1.01297 6.89841 1 6.96351 1 7.02926C1 7.09501 1.01297 7.16012 1.03818 7.22085C1.06338 7.28158 1.10032 7.33674 1.14688 7.38317Z" fill="#8E8C8C" stroke="#8E8C8C"/>
</svg>
