<svg width="16" height="17" viewBox="0 0 16 17" fill="none" xmlns="http://www.w3.org/2000/svg">
<path d="M3.5 0.0300293C3.77614 0.0300293 4 0.253887 4 0.530029V1.03003H12V0.530029C12 0.253887 12.2239 0.0300293 12.5 0.0300293C12.7761 0.0300293 13 0.253887 13 0.530029V1.03003H14C15.1046 1.03003 16 1.92546 16 3.03003V14.03C16 15.1346 15.1046 16.03 14 16.03H2C0.895431 16.03 0 15.1346 0 14.03V3.03003C0 1.92546 0.895431 1.03003 2 1.03003H3V0.530029C3 0.253887 3.22386 0.0300293 3.5 0.0300293ZM2 2.03003C1.44772 2.03003 1 2.47774 1 3.03003V4.03003H15V3.03003C15 2.47774 14.5523 2.03003 14 2.03003H2ZM15 5.03003H1V14.03C1 14.5823 1.44772 15.03 2 15.03H14C14.5523 15.03 15 14.5823 15 14.03V5.03003Z" fill="#8E8C8C"/>
<path d="M11 7.53003C11 7.25389 11.2239 7.03003 11.5 7.03003H12.5C12.7761 7.03003 13 7.25389 13 7.53003V8.53003C13 8.80617 12.7761 9.03003 12.5 9.03003H11.5C11.2239 9.03003 11 8.80617 11 8.53003V7.53003Z" fill="#8E8C8C"/>
<path d="M8 7.53003C8 7.25389 8.22386 7.03003 8.5 7.03003H9.5C9.77614 7.03003 10 7.25389 10 7.53003V8.53003C10 8.80617 9.77614 9.03003 9.5 9.03003H8.5C8.22386 9.03003 8 8.80617 8 8.53003V7.53003Z" fill="#8E8C8C"/>
<path d="M6 10.53C6 10.2539 6.22386 10.03 6.5 10.03H7.5C7.77614 10.03 8 10.2539 8 10.53V11.53C8 11.8062 7.77614 12.03 7.5 12.03H6.5C6.22386 12.03 6 11.8062 6 11.53V10.53Z" fill="#8E8C8C"/>
<path d="M3 10.53C3 10.2539 3.22386 10.03 3.5 10.03H4.5C4.77614 10.03 5 10.2539 5 10.53V11.53C5 11.8062 4.77614 12.03 4.5 12.03H3.5C3.22386 12.03 3 11.8062 3 11.53V10.53Z" fill="#8E8C8C"/>
</svg>
