<svg width="61" height="60" viewBox="0 0 61 60" fill="none" xmlns="http://www.w3.org/2000/svg">
<path d="M54.3 45.42C56.42 45.42 58.14 47.14 58.14 49.25C58.14 51.36 56.42 53.09 54.3 53.09C52.18 53.09 50.46 51.37 50.46 49.25C50.46 47.13 52.18 45.42 54.3 45.42Z" fill="white"/>
<path d="M8.87999 49.26C10.27 49.26 11.4 50.39 11.4 51.78C11.4 53.17 10.27 54.3 8.87999 54.3C7.48999 54.3 6.35999 53.17 6.35999 51.78C6.35999 50.39 7.48999 49.26 8.87999 49.26Z" fill="white"/>
<path d="M37.85 42.9L31.59 58.04L25.23 42.9H37.85Z" fill="white"/>
<path d="M47.9401 42.9L31.5901 58.04L37.8501 42.9H47.9401Z" fill="white"/>
<path d="M25.23 42.9L31.59 58.04L15.14 42.9H25.23Z" fill="white"/>
<path d="M42.9001 35.33L37.8501 42.9L31.5901 35.33H42.9001Z" fill="white"/>
<path d="M31.5899 35.33L25.2299 42.9L20.1899 35.33H31.5899Z" fill="white"/>
<path d="M42.9001 35.33L47.9401 42.9H37.8501L42.9001 35.33Z" fill="white"/>
<path d="M31.59 35.33L37.85 42.9H25.23L31.59 35.33Z" fill="white"/>
<path d="M20.19 35.33L25.23 42.9H15.14L20.19 35.33Z" fill="white"/>
<path d="M57.5299 27.66C57.0299 26.45 56.22 25.44 55.11 24.63C54 23.82 52.79 23.52 51.38 23.52C50.98 23.52 50.5699 23.52 50.1699 23.62C47.1399 24.23 44.82 26.95 44.82 30.28C44.82 29.37 44.62 28.46 44.32 27.66C43.11 14.74 38.06 5.05001 31.7 5.05001C44.72 4.95001 55.12 14.74 57.54 27.66H57.5299Z" fill="white"/>
<path d="M31.59 4.94998L31.49 30.28C31.49 28.36 30.78 26.75 29.57 25.44C28.36 24.23 26.74 23.42 24.93 23.42C22.2 23.42 19.88 25.14 18.87 27.46C20.08 14.64 25.13 5.04998 31.49 4.84998C31.49 4.94998 31.59 4.94998 31.59 4.94998Z" fill="white"/>
<path d="M38.15 23.52C34.52 23.52 31.49 26.55 31.49 30.28L31.59 4.95001C37.95 5.05001 43 14.74 44.21 27.56C43.91 26.75 43.4 26.05 42.8 25.44C41.59 24.33 39.97 23.52 38.16 23.52H38.15Z" fill="#A7C7FC"/>
<path d="M31.49 4.95001C25.13 5.05001 20.08 14.74 18.87 27.56C18.47 28.37 18.37 29.28 18.37 30.28C18.37 27.05 16.15 24.33 13.22 23.62C12.72 23.52 12.21 23.42 11.71 23.42C8.98002 23.42 6.66002 25.14 5.65002 27.56C8.07002 14.74 18.47 5.05001 31.49 4.95001Z" fill="#A7C7FC"/>
<path d="M31.4899 31.59C30.7799 31.59 30.1799 30.98 30.1799 30.28L30.2799 1.21C30.2799 0.5 30.8899 0 31.4899 0C32.1999 0 32.6999 0.61 32.6999 1.31L32.5999 30.38C32.7999 30.99 32.1999 31.59 31.4899 31.59Z" fill="#4D80C9"/>
<path d="M44.81 31.59C44.1 31.59 43.6 30.98 43.6 30.28C43.6 29.47 43.5 28.77 43.2 28.06C42.9 27.45 42.49 26.85 42.09 26.34C41.08 25.33 39.77 24.73 38.36 24.73C35.43 24.73 33.01 27.25 33.01 30.28C33.01 30.99 32.4 31.59 31.7 31.59C31 31.59 30.29 30.98 30.29 30.28C30.29 28.77 29.68 27.45 28.67 26.34C27.66 25.33 26.35 24.73 24.94 24.73C22.82 24.73 20.9 26.04 19.99 28.06C19.69 28.77 19.59 29.47 19.59 30.28C19.59 30.99 18.98 31.59 18.28 31.59C17.58 31.59 16.97 30.98 16.97 30.28C16.97 27.66 15.25 25.44 12.83 24.93C12.43 24.83 12.02 24.83 11.62 24.83C9.50004 24.83 7.58004 26.14 6.67004 28.16C6.47004 28.77 5.76004 29.07 5.16004 28.87C4.55004 28.67 4.15004 28.06 4.25004 27.46C5.46004 20.9 8.79005 14.94 13.64 10.71C18.59 6.26998 24.74 3.94998 31.3 3.84998H31.5C38.16 3.84998 44.32 6.16998 49.26 10.61C54 14.85 57.33 20.9 58.55 27.47C58.65 28.08 58.25 28.68 57.64 28.88C57.03 29.08 56.33 28.78 56.13 28.17C55.73 27.16 55.02 26.35 54.21 25.75C53.1 24.94 51.69 24.64 50.27 24.94C47.75 25.44 45.93 27.77 45.93 30.39C46.03 31 45.43 31.6 44.82 31.6L44.81 31.59ZM38.15 22.2C40.27 22.2 42.29 23.01 43.7 24.52C44.1 24.92 44.41 25.33 44.71 25.83C45.82 24.01 47.64 22.7 49.86 22.3C51.58 22 53.39 22.2 54.91 23.01C51.18 12.92 42.19 6.14998 31.59 6.14998H31.39C20.89 6.24998 11.81 12.91 8.07004 23.01C9.18004 22.51 10.29 22.2 11.6 22.2C12.21 22.2 12.81 22.3 13.42 22.4C15.44 22.9 17.15 24.12 18.27 25.83C19.68 23.61 22.21 22.2 24.93 22.2C27.05 22.2 29.07 23.01 30.48 24.52C30.88 24.92 31.19 25.33 31.49 25.83C32.9 23.71 35.43 22.2 38.15 22.2Z" fill="#4D80C9"/>
<path d="M44.21 28.97C43.6 28.97 43 28.47 43 27.86V27.76C41.89 15.35 37.15 6.35999 31.7 6.25999H31.6C26.15 6.35999 21.41 15.45 20.19 27.66V27.76C20.09 28.47 19.48 28.97 18.78 28.87C18.07 28.77 17.57 28.16 17.67 27.46C18.28 21 19.89 15.15 22.21 10.91C24.73 6.26999 27.96 3.73999 31.5 3.73999H31.8C35.33 3.73999 38.56 6.25999 41.19 10.91C43.51 15.15 45.13 21 45.63 27.56C45.73 28.27 45.23 28.87 44.52 28.97H44.22H44.21Z" fill="#4D80C9"/>
<path d="M55.5101 3.83997H45.4201C44.7101 3.83997 44.1101 3.22997 44.1101 2.52997C44.1101 1.82997 44.7201 1.21997 45.4201 1.21997H55.5101C56.2201 1.21997 56.8201 1.82997 56.8201 2.52997C56.8201 3.22997 56.2101 3.83997 55.5101 3.83997Z" fill="#4D80C9"/>
<path d="M59.3499 7.57001H52.9899C52.2799 7.57001 51.6799 6.96001 51.6799 6.26001C51.6799 5.56001 52.2899 4.95001 52.9899 4.95001H59.3499C60.0599 4.95001 60.6599 5.56001 60.6599 6.26001C60.5599 7.07001 59.9499 7.57001 59.3499 7.57001Z" fill="#4D80C9"/>
<path d="M11.41 3.84002H1.31C0.6 3.84002 0 3.23002 0 2.53002C0 1.83002 0.61 1.21002 1.31 1.21002H11.41C12.12 1.21002 12.72 1.82002 12.72 2.52002C12.72 3.22002 12.01 3.83002 11.41 3.83002V3.84002Z" fill="#4D80C9"/>
<path d="M15.14 7.57001H8.77997C8.06997 7.57001 7.46997 6.96001 7.46997 6.26001C7.46997 5.56001 8.07997 4.95001 8.77997 4.95001H15.14C15.85 4.95001 16.45 5.56001 16.45 6.26001C16.45 7.07001 15.84 7.57001 15.14 7.57001Z" fill="#4D80C9"/>
<path d="M31.5901 59.35C31.2901 59.35 30.9801 59.25 30.7801 59.05L14.3301 43.81C13.9301 43.51 13.8301 42.9 14.0301 42.4C14.2301 41.9 14.6401 41.59 15.2401 41.59H48.0401C48.5401 41.59 49.0501 41.89 49.2501 42.4C49.4501 42.9 49.3501 43.41 48.9501 43.81L32.4001 58.95C32.2001 59.25 31.9001 59.35 31.5901 59.35ZM18.3701 44.21L31.5901 56.32L44.8101 44.21H18.3701Z" fill="#4D80C9"/>
<path d="M31.59 59.35C31.09 59.35 30.58 59.05 30.38 58.54L24.02 43.4C23.72 42.79 24.02 41.99 24.73 41.78C25.34 41.48 26.14 41.78 26.35 42.49L31.5 54.8L36.65 42.49C36.95 41.88 37.66 41.58 38.26 41.78C38.87 42.08 39.17 42.79 38.97 43.4L32.61 58.54C32.51 59.04 32.11 59.35 31.6 59.35H31.59Z" fill="#4D80C9"/>
<path d="M47.94 44.21C47.54 44.21 47.13 44.01 46.93 43.6L42.29 36.64H20.89L16.15 43.6C15.75 44.21 14.94 44.31 14.43 43.9C13.82 43.5 13.72 42.69 14.13 42.18L19.18 34.61C19.38 34.31 19.79 34 20.19 34H42.9C43.3 34 43.71 34.2 43.91 34.61L48.96 42.18C49.36 42.79 49.16 43.59 48.66 43.9C48.46 44.1 48.16 44.2 47.95 44.2L47.94 44.21Z" fill="#4D80C9"/>
<path d="M25.2299 44.21C24.7299 44.21 24.4199 44.01 24.2199 43.6L19.1699 36.03C18.7699 35.42 18.9699 34.62 19.4699 34.31C20.0799 33.91 20.8799 34.11 21.1899 34.61L25.3299 40.77L30.5799 34.51C30.9799 34.01 31.7899 33.9 32.3999 34.31C32.8999 34.71 33.0099 35.52 32.5999 36.13L26.2399 43.7C25.9399 44 25.6299 44.2 25.2299 44.2V44.21Z" fill="#4D80C9"/>
<path d="M37.8499 44.21C37.4499 44.21 37.1399 44.01 36.8399 43.81L30.4799 36.24C30.0799 35.74 30.0799 34.93 30.6799 34.42C31.1799 34.02 31.9899 34.02 32.4999 34.62L37.7499 40.88L41.8899 34.72C42.2899 34.11 43.0999 34.01 43.6099 34.42C44.2199 34.82 44.3199 35.63 43.9099 36.14L38.8599 43.71C38.6599 43.91 38.3599 44.21 37.8499 44.21Z" fill="#4D80C9"/>
<path d="M8.88004 55.51C6.76004 55.51 5.04004 53.79 5.04004 51.68C5.04004 49.57 6.76004 47.84 8.88004 47.84C11 47.84 12.72 49.56 12.72 51.68C12.72 53.8 10.9 55.51 8.88004 55.51ZM8.88004 50.46C8.17004 50.46 7.57004 51.07 7.57004 51.77C7.57004 52.47 8.18004 53.08 8.88004 53.08C9.58004 53.08 10.19 52.47 10.19 51.77C10.09 51.06 9.48004 50.46 8.88004 50.46Z" fill="#4D80C9"/>
<path d="M54.3 54.3C51.47 54.3 49.25 52.08 49.25 49.25C49.25 46.42 51.47 44.2 54.3 44.2C57.13 44.2 59.35 46.42 59.35 49.25C59.35 52.08 57.03 54.3 54.3 54.3ZM54.3 46.73C52.89 46.73 51.78 47.84 51.78 49.25C51.78 50.66 52.89 51.77 54.3 51.77C55.71 51.77 56.82 50.66 56.82 49.25C56.82 47.84 55.61 46.73 54.3 46.73Z" fill="#4D80C9"/>
</svg>
