<svg width="61" height="61" viewBox="0 0 61 61" fill="none" xmlns="http://www.w3.org/2000/svg">
<path d="M17.66 7.67004V25.33V29.17V32.9H42.9V7.67004H17.66Z" fill="white"/>
<path d="M39.16 25.33H31.59V29.17H39.16V25.33Z" fill="white"/>
<path d="M29.07 1.41003L27.76 7.67003H17.66L21.5 1.41003H29.07Z" fill="white"/>
<path d="M39.16 1.41003L42.9 7.67003H32.8L31.59 1.41003H39.16Z" fill="white"/>
<path d="M31.59 1.41003L32.8 7.67003H27.76L29.07 1.41003H31.59Z" fill="white"/>
<path d="M32.81 7.67004H27.76V17.76H32.81V7.67004Z" fill="white"/>
<path d="M10.0899 3.94006C11.4799 3.94006 12.6099 5.07006 12.6099 6.46006C12.6099 7.85006 11.4799 8.98006 10.0899 8.98006C8.69995 8.98006 7.56995 7.85006 7.56995 6.46006C7.56995 5.07006 8.69995 3.94006 10.0899 3.94006Z" fill="white"/>
<path d="M51.0699 1.41003C52.7999 1.41003 54.1999 2.81003 54.1999 4.54003C54.1999 6.27003 52.7999 7.67003 51.0699 7.67003C49.3399 7.67003 47.9399 6.27003 47.9399 4.54003C47.9399 2.81003 49.3399 1.41003 51.0699 1.41003Z" fill="white"/>
<path d="M54.3 50.5701C55.69 50.5701 56.82 51.7001 56.82 53.0901C56.82 54.4801 55.69 55.6101 54.3 55.6101C52.91 55.6101 51.78 54.4801 51.78 53.0901C51.78 51.7001 52.91 50.5701 54.3 50.5701Z" fill="white"/>
<path d="M5.64998 51.78C6.70998 51.78 7.56998 52.64 7.56998 53.7C7.56998 54.76 6.70998 55.62 5.64998 55.62C4.58998 55.62 3.72998 54.76 3.72998 53.7C3.72998 52.64 4.58998 51.78 5.64998 51.78Z" fill="white"/>
<path d="M52.08 31.49H52.18L52.08 15.14C52.08 14.13 52.48 13.22 53.09 12.62C53.8 12.01 54.6 11.51 55.61 11.51C57.63 11.51 59.24 13.12 59.24 15.14V38.86L42.79 54.4V59.45H32.09V45.02L30.27 43.61L43.19 33.31L46.92 30.28C47.53 29.78 48.33 29.47 49.04 29.47C49.75 29.47 50.55 29.67 51.16 30.18C51.56 30.58 51.87 30.99 52.07 31.49H52.08Z" fill="#A7C7FC"/>
<path d="M32.1 45.02V59.45H28.46V45.02L30.28 43.6L32.1 45.02Z" fill="white"/>
<path d="M8.48006 31.49C8.68006 30.99 8.98006 30.58 9.49006 30.18C10.1001 29.68 10.8001 29.47 11.6101 29.47C12.4201 29.47 13.1201 29.77 13.7301 30.28L17.4701 33.31L30.2901 43.61L28.4701 45.12V59.45H17.7701V54.4L1.31006 38.86V15.04C1.31006 13.02 2.92006 11.41 4.94006 11.41C5.95006 11.41 6.86006 11.81 7.46006 12.42C8.07006 13.03 8.57006 13.93 8.57006 14.94L8.47006 31.29V31.49H8.48006Z" fill="#A7C7FC"/>
<path d="M42.8 55.62H36.64C35.93 55.62 35.33 55.01 35.33 54.31C35.33 53.61 35.94 53 36.64 53H42.8C43.51 53 44.11 53.61 44.11 54.31C44.01 55.02 43.4 55.62 42.8 55.62Z" fill="#4D80C9"/>
<path d="M42.8 60.6601H32.1C31.39 60.6601 30.79 60.0501 30.79 59.3501C30.79 58.6501 31.4 58.0401 32.1 58.0401H41.49V54.2001C41.49 53.9001 41.59 53.4901 41.89 53.2901L58.04 38.1501V14.9401C58.04 13.6301 57.03 12.6201 55.72 12.6201C55.11 12.6201 54.51 12.8201 54 13.3301C53.6 13.7301 53.29 14.3401 53.29 15.0501L53.49 31.4001C53.49 32.1101 52.99 32.7101 52.28 32.7101C51.57 32.7101 51.07 32.1001 51.07 31.5001L50.97 15.1501C50.97 13.8401 51.47 12.6301 52.38 11.7201C53.29 10.8101 54.5 10.3101 55.81 10.3101C58.54 10.3101 60.65 12.5301 60.65 15.1601V38.8801C60.65 39.1801 60.55 39.5901 60.25 39.7901L44.1 54.9301V59.4701C44 60.0801 43.39 60.6801 42.79 60.6801L42.8 60.6601Z" fill="#4D80C9"/>
<path d="M28.46 60.66C27.75 60.66 27.15 60.05 27.15 59.35V45.02C27.15 44.62 27.35 44.31 27.65 44.01L46.02 29.27C46.83 28.56 47.94 28.16 48.95 28.16C49.96 28.16 50.97 28.56 51.78 29.17C52.39 29.67 52.89 30.28 53.19 30.99C53.9 32.81 53.49 34.83 52.08 36.14L42.49 44.92C41.99 45.42 41.18 45.32 40.67 44.82C40.17 44.32 40.27 43.51 40.77 43L50.36 34.22C50.97 33.61 51.17 32.71 50.86 31.9C50.76 31.6 50.56 31.29 50.25 31.09C49.85 30.79 49.44 30.69 48.94 30.69C48.44 30.69 47.93 30.89 47.63 31.19L29.66 45.62V59.35C29.66 60.06 29.16 60.66 28.45 60.66H28.46Z" fill="#4D80C9"/>
<path d="M24.0201 55.62H17.8601C17.1501 55.62 16.55 55.01 16.55 54.31C16.55 53.61 17.1601 53 17.8601 53H24.0201C24.7301 53 25.33 53.61 25.33 54.31C25.23 55.02 24.6201 55.62 24.0201 55.62Z" fill="#4D80C9"/>
<path d="M32.1 60.66H17.77C17.06 60.66 16.46 60.0499 16.46 59.3499V54.81L0.3 39.6699C0.1 39.4699 0 39.17 0 38.86V15.04C0 12.31 2.22 10.2 4.84 10.2C6.15 10.2 7.36 10.7 8.27 11.61C9.18 12.52 9.68 13.73 9.68 15.04L9.58 28.57C10.19 28.27 10.79 28.17 11.5 28.17C12.61 28.17 13.62 28.57 14.43 29.28L32.8 44.02C33.1 44.22 33.3 44.6299 33.3 45.0299V59.36C33.4 60.07 32.8 60.6699 32.09 60.6699L32.1 60.66ZM19.08 58.1399H30.89V45.6199L12.92 31.19C12.52 30.89 12.11 30.69 11.61 30.69C11.11 30.69 10.7 30.8899 10.3 31.09C10 31.29 9.8 31.59 9.69 31.9C9.39 32.71 9.59 33.62 10.19 34.22L19.78 43C20.28 43.5 20.28 44.31 19.88 44.82C19.38 45.32 18.57 45.32 18.06 44.9199L8.47 36.1399C7.16 34.93 6.65 33.21 7.16 31.6V31.4L7.26 15.05C7.26 14.44 7.06 13.84 6.55 13.43C6.15 13.03 5.54 12.72 4.83 12.72C3.52 12.72 2.51 13.73 2.51 15.04V38.25L18.66 53.3899C18.96 53.59 19.06 54 19.06 54.2999V58.1399H19.08Z" fill="#4D80C9"/>
<path d="M42.9 34.22H17.66C16.95 34.22 16.35 33.61 16.35 32.91V7.66999C16.35 6.95999 16.96 6.35999 17.66 6.35999C18.36 6.35999 18.97 6.96999 18.97 7.66999V31.69H41.68V7.66999C41.68 6.95999 42.29 6.35999 42.99 6.35999C43.69 6.35999 44.3 6.96999 44.3 7.66999V32.9C44.2 33.61 43.59 34.21 42.89 34.21L42.9 34.22Z" fill="#4D80C9"/>
<path d="M42.8999 8.98001H32.8099C32.0999 8.98001 31.4999 8.37001 31.4999 7.67001C31.4999 6.97001 32.1099 6.36001 32.8099 6.36001H40.6799L38.3599 2.63001H31.4999C30.7899 2.63001 30.1899 2.02001 30.1899 1.32001C30.1899 0.62001 30.7999 0.0100098 31.4999 0.0100098H39.0699C39.4699 0.0100098 39.8799 0.21001 40.1799 0.62001L44.0099 6.98001C44.2099 7.38001 44.2099 7.89001 44.0099 8.29001C43.8099 8.69001 43.3999 9.00001 42.8999 9.00001V8.98001Z" fill="#4D80C9"/>
<path d="M27.76 8.97997H17.67C17.17 8.97997 16.76 8.77997 16.56 8.36998C16.36 7.96997 16.36 7.45998 16.56 7.05998L20.39 0.709976C20.59 0.309976 21 0.0999756 21.5 0.0999756H29.07C29.78 0.0999756 30.38 0.709976 30.38 1.40998C30.38 2.10998 29.77 2.71998 29.07 2.71998H22.21L19.89 6.55998H27.76C28.47 6.55998 29.07 7.16998 29.07 7.86998C29.07 8.36998 28.46 8.97997 27.76 8.97997Z" fill="#4D80C9"/>
<path d="M32.8 8.97997C32.19 8.97997 31.69 8.57998 31.59 7.96998L30.58 2.71998H30.08L29.07 7.96998C28.97 8.67998 28.26 9.07998 27.56 8.97997C26.85 8.87997 26.45 8.16998 26.55 7.46998L27.86 1.10998C27.96 0.499976 28.47 0.0999756 29.07 0.0999756H31.59C32.2 0.0999756 32.7 0.499976 32.8 1.10998L34.11 7.46998C34.21 8.17998 33.81 8.77997 33.1 8.97997C33 8.87997 32.9 8.97997 32.8 8.97997Z" fill="#4D80C9"/>
<path d="M32.7999 19.08H27.7499C27.0399 19.08 26.4399 18.47 26.4399 17.77V7.66999C26.4399 6.95999 27.0499 6.35999 27.7499 6.35999H32.7999C33.5099 6.35999 34.1099 6.96999 34.1099 7.66999V17.76C34.1099 18.47 33.4999 19.07 32.7999 19.07V19.08ZM29.0699 16.56H31.5899V8.98998H29.0699V16.56Z" fill="#4D80C9"/>
<path d="M39.16 30.38H31.59C30.88 30.38 30.28 29.77 30.28 29.07V25.34C30.28 24.63 30.89 24.03 31.59 24.03H39.16C39.87 24.03 40.47 24.64 40.47 25.34V29.18C40.37 29.79 39.76 30.39 39.16 30.39V30.38ZM32.8 27.86H37.85V26.55H32.8V27.86Z" fill="#4D80C9"/>
<path d="M39.16 12.72H36.64C35.93 12.72 35.33 12.11 35.33 11.41C35.33 10.71 35.94 10.1 36.64 10.1H39.16C39.87 10.1 40.47 10.71 40.47 11.41C40.37 12.12 39.76 12.72 39.16 12.72Z" fill="#4D80C9"/>
<path d="M39.16 16.5501H36.64C35.93 16.5501 35.33 15.9401 35.33 15.2401C35.33 14.5401 35.94 13.9301 36.64 13.9301H39.16C39.87 13.9301 40.47 14.5401 40.47 15.2401C40.37 15.9501 39.76 16.5501 39.16 16.5501Z" fill="#4D80C9"/>
<path d="M26.55 30.38H17.67C16.96 30.38 16.36 29.77 16.36 29.07C16.36 28.37 16.97 27.76 17.67 27.76H26.55C27.26 27.76 27.86 28.37 27.86 29.07C27.76 29.78 27.15 30.38 26.55 30.38Z" fill="#4D80C9"/>
<path d="M26.55 26.65H17.67C16.96 26.65 16.36 26.04 16.36 25.34C16.36 24.64 16.97 24.03 17.67 24.03H26.55C27.26 24.03 27.86 24.64 27.86 25.34C27.76 26.05 27.15 26.65 26.55 26.65Z" fill="#4D80C9"/>
<path d="M10.09 10.19C7.97 10.19 6.25 8.47001 6.25 6.35001C6.25 4.23001 7.97 2.51001 10.09 2.51001C12.21 2.51001 13.92 4.23001 13.92 6.35001C13.92 8.47001 12.2 10.19 10.09 10.19ZM10.09 5.14001C9.38 5.14001 8.78 5.75001 8.78 6.45001C8.78 7.15001 9.39 7.76001 10.09 7.76001C10.79 7.76001 11.4 7.15001 11.4 6.45001C11.4 5.75001 10.79 5.14001 10.09 5.14001Z" fill="#4D80C9"/>
<path d="M54.3 56.93C52.18 56.93 50.46 55.21 50.46 53.09C50.46 50.97 52.18 49.25 54.3 49.25C56.42 49.25 58.14 50.97 58.14 53.09C58.14 55.21 56.32 56.93 54.3 56.93ZM54.3 51.88C53.59 51.88 52.99 52.49 52.99 53.19C52.99 53.89 53.6 54.5 54.3 54.5C55 54.5 55.61 53.89 55.61 53.19C55.51 52.38 54.9 51.88 54.3 51.88Z" fill="#4D80C9"/>
<path d="M5.65002 56.93C3.93002 56.93 2.52002 55.52 2.52002 53.8C2.52002 52.08 3.93002 50.67 5.65002 50.67C7.37002 50.67 8.78002 52.08 8.78002 53.8C8.88002 55.41 7.37002 56.93 5.65002 56.93ZM5.65002 53.09C5.35002 53.09 5.04002 53.39 5.04002 53.7C5.04002 54.01 5.34002 54.31 5.65002 54.31C5.96002 54.31 6.26002 54.01 6.26002 53.7C6.36002 53.4 6.06002 53.09 5.65002 53.09Z" fill="#4D80C9"/>
<path d="M51.07 8.97997C48.65 8.97997 46.63 6.95998 46.63 4.53998C46.63 2.11998 48.65 0.0999756 51.07 0.0999756C53.49 0.0999756 55.51 2.11998 55.51 4.53998C55.51 6.95998 53.49 8.97997 51.07 8.97997ZM51.07 2.61998C50.06 2.61998 49.15 3.42998 49.15 4.53998C49.15 5.64998 49.96 6.45998 51.07 6.45998C52.08 6.45998 52.99 5.64998 52.99 4.53998C52.99 3.42998 52.18 2.61998 51.07 2.61998Z" fill="#4D80C9"/>
</svg>
