<svg width="16" height="19" viewBox="0 0 16 19" fill="none" xmlns="http://www.w3.org/2000/svg">
<path d="M8.39804 17.7817L8.85847 18.6694L8.85847 18.6694L8.39804 17.7817ZM7.60196 17.7817L7.14153 18.6694L7.14153 18.6694L7.60196 17.7817ZM14 8.97778C14 11.1236 12.9079 12.8937 11.545 14.2684C10.183 15.6422 8.6342 16.5327 7.9376 16.8941L8.85847 18.6694C9.64481 18.2616 11.397 17.2583 12.9653 15.6765C14.5326 14.0956 16 11.8483 16 8.97778H14ZM8 2.97778C11.3137 2.97778 14 5.66407 14 8.97778H16C16 4.55951 12.4183 0.977783 8 0.977783V2.97778ZM2 8.97778C2 5.66407 4.68629 2.97778 8 2.97778V0.977783C3.58172 0.977783 0 4.55951 0 8.97778H2ZM8.0624 16.8941C7.3658 16.5327 5.81702 15.6422 4.45503 14.2684C3.09211 12.8937 2 11.1236 2 8.97778H0C0 11.8483 1.46741 14.0956 3.03474 15.6765C4.60299 17.2583 6.35519 18.2616 7.14153 18.6694L8.0624 16.8941ZM7.9376 16.8941C7.95139 16.8869 7.97326 16.8801 8 16.8801C8.02674 16.8801 8.04861 16.8869 8.0624 16.8941L7.14153 18.6694C7.68309 18.9503 8.31691 18.9503 8.85847 18.6694L7.9376 16.8941ZM10 8.97778C10 10.0824 9.10457 10.9778 8 10.9778V12.9778C10.2091 12.9778 12 11.1869 12 8.97778H10ZM8 6.97778C9.10457 6.97778 10 7.87321 10 8.97778H12C12 6.76864 10.2091 4.97778 8 4.97778V6.97778ZM6 8.97778C6 7.87321 6.89543 6.97778 8 6.97778V4.97778C5.79086 4.97778 4 6.76864 4 8.97778H6ZM8 10.9778C6.89543 10.9778 6 10.0824 6 8.97778H4C4 11.1869 5.79086 12.9778 8 12.9778V10.9778Z" fill="white"/>
</svg>
