<svg width="55" height="54" viewBox="0 0 55 54" fill="none" xmlns="http://www.w3.org/2000/svg">
<path d="M11.45 1.31006V49.0001H46.49C44.38 49.1001 42.57 50.7101 42.57 52.7201C42.57 54.7301 44.18 56.3301 46.2799 56.5401C49.8999 56.4401 52.81 53.9301 52.81 50.3101V1.31006H11.45Z" fill="#A7C7FC"/>
<path d="M42.6801 8.13C39.5701 8.63 36.7601 8.53 34.4501 7.63H29.8301C27.5201 8.53 24.6101 8.63 21.3901 8.13C21.3901 25.4 20.6901 22.19 29.6201 31.43H34.4401C43.3801 22.09 42.6701 25.3 42.6701 8.13H42.6801Z" fill="white"/>
<path d="M6.32005 15.16H1.30005V18.98H6.32005V15.16Z" fill="white"/>
<path d="M6.33005 18.88V38.96L3.82005 45.29L1.30005 38.96V18.88H6.33005Z" fill="white"/>
<path d="M6.33005 12.65V15.16H1.30005V12.65C1.30005 11.24 2.40005 10.14 3.81005 10.14C4.51005 10.14 5.12005 10.44 5.62005 10.84C6.02005 11.24 6.32005 11.94 6.32005 12.65H6.33005Z" fill="white"/>
<path d="M42.58 52.72C42.58 54.73 44.19 56.33 46.29 56.54H7.93003C5.72003 56.54 3.91003 54.83 3.91003 52.72C3.91003 51.72 4.31003 50.71 5.01003 50.11C5.71003 49.41 6.62003 49.01 7.82003 49.01H46.69C44.38 49.11 42.57 50.72 42.57 52.73L42.58 52.72Z" fill="white"/>
<path d="M37.66 14.56C38.36 15.26 38.36 16.47 37.66 17.27L33.64 21.29L30.93 23.9L28.22 21.19L27.01 19.8799C26.31 19.1799 26.31 17.97 27.01 17.17C27.71 16.47 28.92 16.47 29.72 17.17L31.03 18.4799L35.05 14.46C35.65 13.86 36.86 13.86 37.66 14.56Z" fill="white"/>
<path d="M46.19 57.84H7.82999C4.91999 57.84 2.60999 55.63 2.60999 52.82C2.60999 51.51 3.10999 50.2101 4.11999 49.3101C5.11999 48.4101 6.32999 47.8 7.72999 47.8H11.45C12.15 47.8 12.76 48.4001 12.76 49.1101C12.76 49.8201 12.16 50.42 11.45 50.42H7.72999C7.02999 50.42 6.31999 50.72 5.81999 51.12C5.31999 51.62 5.11999 52.2301 5.11999 52.93C5.11999 54.34 6.31999 55.44 7.82999 55.44H46.29C46.99 55.44 47.6 56.04 47.6 56.75C47.5 57.25 46.9 57.85 46.19 57.85V57.84Z" fill="#4D80C9"/>
<path d="M46.19 57.74H46.09C43.38 57.54 41.27 55.33 41.27 52.72C41.27 51.82 41.57 50.91 41.97 50.21H11.45C10.75 50.21 10.14 49.61 10.14 48.9V1.31C10.14 0.61 10.74 0 11.45 0H52.82C53.52 0 54.13 0.6 54.13 1.31V50.31C54.03 54.43 50.72 57.74 46.2 57.74H46.19ZM12.65 47.8H46.49C47.19 47.8 47.7 48.3 47.7 49.01C47.7 49.72 47.2 50.21 46.49 50.32C44.98 50.42 43.78 51.53 43.78 52.83C43.78 54.13 44.88 55.24 46.29 55.34C49.3 55.24 51.51 53.13 51.51 50.32V2.61H12.65V47.8Z" fill="#4D80C9"/>
<path d="M3.82 46.49C3.32 46.49 2.82 46.19 2.61 45.69L0.1 39.36C0 39.26 0 39.06 0 38.86V12.65C0 10.54 1.71 8.82996 3.82 8.82996C4.82 8.82996 5.73 9.22996 6.53 9.92996C7.33 10.63 7.63 11.64 7.63 12.64V38.95C7.63 39.15 7.63 39.25 7.53 39.45L4.92 45.68C4.72 46.18 4.32 46.48 3.82 46.48V46.49ZM2.51 38.76L3.82 41.87L5.13 38.76V12.65C5.13 12.35 5.03 12.05 4.73 11.75C4.53 11.55 4.23 11.35 3.83 11.35C3.13 11.35 2.52 11.95 2.52 12.66V38.77L2.51 38.76Z" fill="#4D80C9"/>
<path d="M6.33 16.37H1.3C0.6 16.37 0 15.77 0 15.06C0 14.35 0.6 13.75 1.3 13.75H6.33C7.03 13.75 7.63 14.35 7.63 15.06C7.53 15.76 7.03 16.37 6.33 16.37Z" fill="#4D80C9"/>
<path d="M6.33 20.1801H1.3C0.6 20.1801 0 19.5801 0 18.8701C0 18.1601 0.6 17.5601 1.3 17.5601H6.33C7.03 17.5601 7.63 18.1601 7.63 18.8701C7.53 19.5701 7.03 20.1801 6.33 20.1801Z" fill="#4D80C9"/>
<path d="M30.93 25.2C30.63 25.2 30.33 25.1 30.03 24.8L26.01 20.78C25.41 20.18 25.11 19.37 25.11 18.57C25.11 17.77 25.41 16.96 26.01 16.36C26.61 15.76 27.42 15.46 28.22 15.46C29.02 15.46 29.83 15.76 30.43 16.36L30.83 16.76L33.94 13.65C34.54 13.05 35.35 12.75 36.15 12.75C36.95 12.75 37.76 13.05 38.36 13.65C39.56 14.86 39.56 16.86 38.36 18.07L31.73 24.7C31.63 25 31.33 25.2 30.93 25.2ZM28.32 17.97C28.22 17.97 28.02 17.97 27.92 18.17C27.72 18.37 27.72 18.47 27.72 18.57C27.72 18.67 27.72 18.87 27.92 18.97L31.03 22.08L36.75 16.36C36.95 16.16 36.95 15.76 36.75 15.46C36.55 15.26 36.45 15.26 36.35 15.26C36.25 15.26 36.05 15.26 35.95 15.46L31.93 19.48C31.43 19.98 30.62 19.98 30.12 19.48L28.81 18.17C28.61 17.97 28.41 17.97 28.31 17.97H28.32Z" fill="#4D80C9"/>
<path d="M34.44 32.7399H29.62C29.32 32.7399 28.92 32.6399 28.72 32.3399C27.62 31.1399 26.61 30.2299 25.81 29.3299C23.1 26.6199 21.59 25.1099 20.79 22.6999C20.09 20.3899 20.09 17.4799 20.09 11.5499V8.13994C20.09 7.73994 20.29 7.43994 20.49 7.23994C20.79 7.03994 21.09 6.93994 21.49 6.93994C22.7 7.13994 23.8 7.23994 24.8 7.23994C26.51 7.23994 28.01 7.03994 29.22 6.53994C29.32 6.43994 29.52 6.43994 29.62 6.43994H34.24C34.34 6.43994 34.54 6.43994 34.64 6.53994C35.85 7.03994 37.35 7.23994 39.06 7.23994C40.06 7.23994 41.17 7.13994 42.27 6.93994C42.67 6.83994 42.97 7.03994 43.27 7.23994C43.57 7.43994 43.67 7.83994 43.67 8.13994V11.5499C43.67 17.4699 43.67 20.3899 42.97 22.6999C42.17 25.1099 40.76 26.6199 37.95 29.3299C37.05 30.2299 36.14 31.1399 35.04 32.3399C35.04 32.5399 34.74 32.7399 34.44 32.7399ZM30.22 30.2299H33.94C34.94 29.2299 35.75 28.3199 36.55 27.6199C39.16 25.0099 40.37 23.7999 40.87 21.9999C41.47 20.0899 41.47 17.2799 41.47 11.5599V9.54994C40.67 9.64994 39.96 9.64994 39.26 9.64994C37.35 9.64994 35.75 9.34994 34.24 8.84994H30.02C28.01 9.54994 25.5 9.74994 22.69 9.54994V11.5599C22.69 17.1799 22.69 19.9999 23.29 21.9999C23.89 23.8099 25 25.0099 27.61 27.6199C28.31 28.3199 29.22 29.1299 30.22 30.2299Z" fill="#4D80C9"/>
<path d="M46.49 37.76H17.57C16.87 37.76 16.26 37.16 16.26 36.45C16.26 35.74 16.86 35.14 17.57 35.14H46.49C47.19 35.14 47.8 35.74 47.8 36.45C47.8 37.16 47.2 37.76 46.49 37.76Z" fill="#4D80C9"/>
<path d="M42.68 41.47H21.39C20.69 41.47 20.08 40.87 20.08 40.16C20.08 39.45 20.68 38.85 21.39 38.85H42.78C43.48 38.85 44.09 39.45 44.09 40.16C44.09 40.87 43.39 41.47 42.68 41.47Z" fill="#4D80C9"/>
<path d="M38.96 45.29H25.1C24.4 45.29 23.79 44.69 23.79 43.98C23.79 43.27 24.39 42.67 25.1 42.67H38.96C39.66 42.67 40.27 43.27 40.27 43.98C40.17 44.68 39.67 45.29 38.96 45.29Z" fill="#4D80C9"/>
</svg>
